:FULLY-SPECIFIED
:FORCE-ALL-JOINTS-BE-3DOF
:DEGREES
1835
root 6.36116 13.9641 27.821 -21.4063 54.7512 -23.7701
lfemur -53.5644 26.4928 1.90461
ltibia 66.2324 -0 0
lfoot -4.70332 -7.41456 0.226972
ltoes -20.954 0 0
rfemur 3.88642 -5.5481 17.9087
rtibia 48.329 -0 0
rfoot -26.3361 -29.7343 -0.0386679
rtoes -28.8373 0 0
lowerback 14.0405 4.49897 6.53626
upperback -0.531847 7.57097 4.67107
thorax -8.27008 3.53184 -0.232739
lowerneck -3.3065 11.2552 4.01484
upperneck 6.98815 15.1016 -2.9383
head 3.5258 7.51447 -0.968788
lclavicle -3.42476e-14 -4.98701e-14 0
lhumerus 62.1163 15.1409 107.929
lradius 10.2174 -0 0
lwrist -84.7208 0 0
lhand -32.3834 41.6029 -0.0436635
lfingers 7.12502 -0 0
lthumb -5.61843 71.4909 -0.0397662
rclavicle -3.42476e-14 -4.98701e-14 0
rhumerus -71.9223 10.7884 -82.8978
rradius 124.992 -0 0
rwrist -42.2007 180 180
rhand -59.9756 -78.7384 3.12886
rfingers 7.12502 -0 0
rthumb -32.5825 -97.6308 1.65672
1836
root 6.43034 13.951 27.8257 -21.2112 54.4612 -23.7546
lfemur -53.8577 27.0294 1.88037
ltibia 67.0712 -0 0
lfoot -5.35834 -7.62495 0.197718
ltoes -21.7718 0 0
rfemur 4.07746 -5.34408 17.8536
rtibia 48.0446 -0 0
rfoot -26.1754 -29.8811 -0.0336929
rtoes -29.1038 0 0
lowerback 14.0381 4.58589 6.52963
upperback -0.550636 7.69156 4.71579
thorax -8.29058 3.59079 -0.205427
lowerneck -3.19241 11.4581 4.20052
upperneck 6.9219 15.3806 -3.13213
head 3.51518 7.65215 -1.05018
lclavicle -3.42476e-14 -4.98701e-14 0
lhumerus 62.2466 15.2677 108.142
lradius 10.1939 -0 0
lwrist -85.2328 0 0
lhand -32.1804 41.4718 -0.0380455
lfingers 7.12502 -0 0
lthumb -5.42243 71.3671 -0.0346498
rclavicle -3.42476e-14 -4.98701e-14 0
rhumerus -72.2468 10.9225 -83.0789
rradius 125.166 -0 0
rwrist -43.5477 180 180
rhand -59.481 -75.4023 2.70576
rfingers 7.12502 -0 0
rthumb -32.0877 -95.6796 1.4399
1837
root 6.49953 13.9378 27.8304 -21.0303 54.1901 -23.7417
lfemur -54.1333 27.5307 1.85482
ltibia 67.8549 -0 0
lfoot -5.9703 -7.82123 0.168211
ltoes -22.536 0 0
rfemur 4.25574 -5.15327 17.8027
rtibia 47.7789 -0 0
rfoot -26.0253 -30.0182 -0.0286723
rtoes -29.3528 0 0
lowerback 14.0359 4.66712 6.52343
upperback -0.568112 7.80426 4.75755
thorax -8.30971 3.64588 -0.179925
lowerneck -3.08512 11.6474 4.37451
upperneck 6.85903 15.641 -3.31378
head 3.50507 7.78079 -1.12627
lclavicle -3.42476e-14 -4.98701e-14 0
lhumerus 62.3688 15.3857 108.341
lradius 10.1719 -0 0
lwrist -85.7112 0 0
lhand -31.9906 41.3493 -0.0323761
lfingers 7.12502 -0 0
lthumb -5.23929 71.2515 -0.0294864
rclavicle -3.42476e-14 -4.98701e-14 0
rhumerus -72.5506 11.0469 -83.2488
rradius 125.328 -0 0
rwrist -44.8063 180 180
rhand -59.0421 -72.2894 2.28508
rfingers 7.12502 -0 0
rthumb -31.6324 -93.8584 1.2222
1838
root 6.56872 13.9247 27.835 -20.8645 53.9399 -23.7311
lfemur -54.389 27.9934 1.82871
ltibia 68.5784 -0 0
lfoot -6.53511 -8.00212 0.139113
ltoes -23.2414 0 0
rfemur 4.42011 -4.977 17.7563
rtibia 47.5337 -0 0
rfoot -25.8867 -30.1448 -0.0237186
rtoes -29.5827 0 0
lowerback 14.0338 4.7421 6.51771
upperback -0.584175 7.9083 4.79608
thorax -8.32735 3.69675 -0.156397
lowerneck -2.98549 11.8219 4.53555
upperneck 6.80016 15.8813 -3.48194
head 3.49558 7.89953 -1.19656
lclavicle -3.42476e-14 -4.98701e-14 0
lhumerus 62.482 15.4943 108.526
lradius 10.1516 -0 0
lwrist -86.1529 0 0
lhand -31.8154 41.2362 -0.0267823
lfingers 7.12502 -0 0
lthumb -5.07025 71.1448 -0.024392
rclavicle -3.42476e-14 -4.98701e-14 0
rhumerus -72.8314 11.1609 -83.4063
rradius 125.478 -0 0
rwrist -45.9682 180 180
rhand -58.6578 -69.4195 1.87613
rfingers 7.12502 -0 0
rthumb -31.2184 -92.1788 1.00849
